<?xml version="1.0" encoding="UTF-8" standalone="no"?>
<!DOCTYPE svg PUBLIC "-//W3C//DTD SVG 1.1//EN"
 "http://www.w3.org/Graphics/SVG/1.1/DTD/svg11.dtd">
<!-- Generated by graphviz version 2.26.0 (20091210.2329)
 -->
<!-- Title: NoVChallengeStudies Pages: 1 -->
<svg width="451pt" height="468pt"
 viewBox="0.00 0.00 451.00 468.00" xmlns="http://www.w3.org/2000/svg" xmlns:xlink="http://www.w3.org/1999/xlink">
<g id="graph1" class="graph" transform="scale(1 1) rotate(0) translate(4 464)">
<title>NoVChallengeStudies</title>
<polygon fill="white" stroke="white" points="-4,5 -4,-464 448,-464 448,5 -4,5"/>
<!-- a -->
<g id="node1" class="node"><title>a</title>
<polygon fill="none" stroke="black" points="104,-460 4.9738e-14,-460 0,-398 104,-398 104,-460"/>
<text text-anchor="middle" x="52" y="-443.4" font-family="Times Roman,serif" font-size="14.00">PubMed</text>
<text text-anchor="middle" x="52" y="-408.4" font-family="Times Roman,serif" font-size="14.00">3460 Citation(s)</text>
</g>
<!-- nodups -->
<g id="node3" class="node"><title>nodups</title>
<polygon fill="none" stroke="black" points="174,-362 52,-362 52,-316 174,-316 174,-362"/>
<text text-anchor="middle" x="113" y="-345.4" font-family="Times Roman,serif" font-size="14.00">5301 non&#45;duplicate</text>
<text text-anchor="middle" x="113" y="-326.4" font-family="Times Roman,serif" font-size="14.00">citations identified</text>
</g>
<!-- a&#45;&gt;nodups -->
<g id="edge2" class="edge"><title>a&#45;&gt;nodups</title>
<path fill="none" stroke="black" d="M73.1636,-397.775C79.0995,-389.017 85.5575,-379.489 91.5119,-370.704"/>
<polygon fill="black" stroke="black" points="94.5473,-372.464 97.2606,-362.222 88.7528,-368.536 94.5473,-372.464"/>
</g>
<!-- incex -->
<g id="node7" class="node"><title>incex</title>
<ellipse fill="none" stroke="black" cx="113" cy="-257" rx="87.1802" ry="19.0919"/>
<text text-anchor="middle" x="113" y="-253.9" font-family="Times Roman,serif" font-size="14.00">title/abstract review</text>
</g>
<!-- nodups&#45;&gt;incex -->
<g id="edge6" class="edge"><title>nodups&#45;&gt;incex</title>
<path fill="none" stroke="black" d="M113,-315.721C113,-306.542 113,-295.894 113,-286.207"/>
<polygon fill="black" stroke="black" points="116.5,-286.186 113,-276.187 109.5,-286.187 116.5,-286.186"/>
</g>
<!-- b -->
<g id="node4" class="node"><title>b</title>
<polygon fill="none" stroke="black" points="226,-460 122,-460 122,-398 226,-398 226,-460"/>
<text text-anchor="middle" x="174" y="-443.4" font-family="Times Roman,serif" font-size="14.00">Web of Science</text>
<text text-anchor="middle" x="174" y="-408.4" font-family="Times Roman,serif" font-size="14.00">2866 Citation(s)</text>
</g>
<!-- b&#45;&gt;nodups -->
<g id="edge4" class="edge"><title>b&#45;&gt;nodups</title>
<path fill="none" stroke="black" d="M152.836,-397.775C146.901,-389.017 140.443,-379.489 134.488,-370.704"/>
<polygon fill="black" stroke="black" points="137.247,-368.536 128.739,-362.222 131.453,-372.464 137.247,-368.536"/>
</g>
<!-- ex -->
<g id="node10" class="node"><title>ex</title>
<polygon fill="none" stroke="black" points="342,-280 218,-280 218,-234 342,-234 342,-280"/>
<text text-anchor="middle" x="280" y="-263.4" font-family="Times Roman,serif" font-size="14.00">5203 excluded after</text>
<text text-anchor="middle" x="280" y="-244.4" font-family="Times Roman,serif" font-size="14.00">title/abstract review</text>
</g>
<!-- incex&#45;&gt;ex -->
<g id="edge9" class="edge"><title>incex&#45;&gt;ex</title>
<path fill="none" stroke="black" d="M200.088,-257C202.683,-257 205.277,-257 207.872,-257"/>
<polygon fill="black" stroke="black" points="207.881,-260.5 217.881,-257 207.881,-253.5 207.881,-260.5"/>
</g>
<!-- ft -->
<g id="node11" class="node"><title>ft</title>
<polygon fill="none" stroke="black" points="179,-198 47,-198 47,-162 179,-162 179,-198"/>
<text text-anchor="middle" x="113" y="-176.9" font-family="Times Roman,serif" font-size="14.00">98 Articles Retrieved</text>
</g>
<!-- incex&#45;&gt;ft -->
<g id="edge10" class="edge"><title>incex&#45;&gt;ft</title>
<path fill="none" stroke="black" d="M113,-237.966C113,-229.005 113,-218.134 113,-208.239"/>
<polygon fill="black" stroke="black" points="116.5,-208.021 113,-198.021 109.5,-208.021 116.5,-208.021"/>
</g>
<!-- incex2 -->
<g id="node14" class="node"><title>incex2</title>
<ellipse fill="none" stroke="black" cx="113" cy="-103" rx="70.2092" ry="19.0919"/>
<text text-anchor="middle" x="113" y="-99.9" font-family="Times Roman,serif" font-size="14.00">full text review</text>
</g>
<!-- ft&#45;&gt;incex2 -->
<g id="edge13" class="edge"><title>ft&#45;&gt;incex2</title>
<path fill="none" stroke="black" d="M113,-161.752C113,-152.999 113,-142.294 113,-132.431"/>
<polygon fill="black" stroke="black" points="116.5,-132.191 113,-122.191 109.5,-132.191 116.5,-132.191"/>
</g>
<!-- daex -->
<g id="node17" class="node"><title>daex</title>
<polygon fill="none" stroke="black" points="443,-126 329,-126 329,-80 443,-80 443,-126"/>
<text text-anchor="middle" x="386" y="-109.4" font-family="Times Roman,serif" font-size="14.00">6 excluded during</text>
<text text-anchor="middle" x="386" y="-90.4" font-family="Times Roman,serif" font-size="14.00">data abstraction</text>
</g>
<!-- incex2&#45;&gt;daex -->
<g id="edge16" class="edge"><title>incex2&#45;&gt;daex</title>
<path fill="none" stroke="black" d="M141.991,-120.427C158.624,-129.403 180.266,-139.407 201,-144 248.732,-154.574 263.633,-156.102 311,-144 322.12,-141.159 333.367,-136.292 343.649,-130.883"/>
<polygon fill="black" stroke="black" points="345.359,-133.937 352.408,-126.027 341.965,-127.814 345.359,-133.937"/>
</g>
<!-- ftex -->
<g id="node18" class="node"><title>ftex</title>
<polygon fill="none" stroke="black" points="311,-126 201,-126 201,-80 311,-80 311,-126"/>
<text text-anchor="middle" x="256" y="-109.4" font-family="Times Roman,serif" font-size="14.00">34 excluded after</text>
<text text-anchor="middle" x="256" y="-90.4" font-family="Times Roman,serif" font-size="14.00">full text review</text>
</g>
<!-- incex2&#45;&gt;ftex -->
<g id="edge17" class="edge"><title>incex2&#45;&gt;ftex</title>
<path fill="none" stroke="black" d="M183.104,-103C185.586,-103 188.069,-103 190.552,-103"/>
<polygon fill="black" stroke="black" points="190.758,-106.5 200.758,-103 190.758,-99.5001 190.758,-106.5"/>
</g>
<!-- inc -->
<g id="node21" class="node"><title>inc</title>
<polygon fill="none" stroke="black" points="174.031,-40 51.9695,-40 51.9695,-4 174.031,-4 174.031,-40"/>
<polygon fill="none" stroke="black" points="178,-44 48,-44 48,-1.77636e-14 178,-3.55271e-15 178,-44"/>
<text text-anchor="middle" x="113" y="-18.9" font-family="Times Roman,serif" font-size="14.00">58 articles included</text>
</g>
<!-- incex2&#45;&gt;inc -->
<g id="edge20" class="edge"><title>incex2&#45;&gt;inc</title>
<path fill="none" stroke="black" d="M113,-83.8041C113,-74.9848 113,-64.2814 113,-54.2768"/>
<polygon fill="black" stroke="black" points="116.5,-54.2122 113,-44.2123 109.5,-54.2123 116.5,-54.2122"/>
</g>
</g>
</svg>
